<?xml version="1.0" standalone="no"?>
<!DOCTYPE svg PUBLIC "-//W3C//DTD SVG 20010904//EN"
 "http://www.w3.org/TR/2001/REC-SVG-20010904/DTD/svg10.dtd">
<svg version="1.0" xmlns="http://www.w3.org/2000/svg"
 width="560.000000pt" height="560.000000pt" viewBox="0 0 560.000000 560.000000"
 preserveAspectRatio="xMidYMid meet">
<metadata>
Created by potrace 1.14, written by Peter Selinger 2001-2017
</metadata>
<g transform="translate(0.000000,560.000000) scale(0.100000,-0.100000)"
fill="#000000" stroke="none">
<path d="M2382 5524 c-45 -23 -58 -45 -136 -229 -37 -88 -76 -178 -86 -200
-10 -22 -44 -101 -75 -175 -31 -74 -64 -151 -73 -170 -9 -19 -17 -37 -18 -40
0 -3 -8 -22 -17 -43 -9 -20 -16 -38 -15 -40 0 -1 -9 -21 -21 -44 -11 -23 -21
-49 -21 -56 0 -8 -7 -20 -15 -27 -8 -6 -13 -15 -12 -18 1 -7 -75 -194 -113
-277 -10 -22 -44 -101 -75 -175 -32 -74 -65 -153 -75 -175 -10 -22 -30 -68
-44 -102 -14 -35 -37 -86 -50 -115 -13 -29 -43 -98 -66 -153 -62 -147 -66
-155 -90 -210 -13 -27 -23 -56 -23 -62 0 -7 -4 -13 -9 -13 -4 0 -8 -8 -8 -18
0 -10 -4 -22 -8 -28 -13 -13 -97 -218 -94 -226 1 -5 -2 -8 -8 -8 -5 0 -10 -6
-10 -14 0 -8 -6 -27 -14 -43 -32 -63 -76 -163 -76 -171 0 -5 -14 -40 -31 -78
-35 -76 -52 -119 -48 -119 2 0 -4 -13 -14 -30 -9 -16 -25 -50 -35 -75 -11 -25
-66 -153 -122 -285 -56 -132 -111 -260 -122 -285 -11 -25 -26 -58 -33 -75 -25
-58 -56 -130 -65 -150 -20 -44 -172 -401 -174 -410 -2 -5 -13 -32 -25 -60 -13
-27 -30 -68 -39 -90 -8 -22 -22 -50 -30 -63 -8 -12 -11 -22 -8 -22 4 0 0 -12
-8 -27 -18 -34 -78 -169 -80 -183 -1 -3 -9 -21 -18 -40 -9 -19 -41 -94 -71
-165 -30 -72 -64 -151 -75 -175 -39 -86 -122 -288 -122 -296 0 -10 325 -10
416 0 295 31 569 227 690 494 19 42 43 91 52 107 9 17 16 32 15 35 -1 6 14 44
32 85 8 16 44 102 80 190 37 88 91 216 120 285 30 69 81 190 115 270 34 80 67
159 75 175 7 17 20 49 30 73 10 23 19 42 20 42 20 0 181 -62 247 -95 167 -83
295 -183 489 -381 449 -457 597 -600 738 -714 24 -19 49 -39 55 -45 58 -50
270 -194 319 -216 15 -7 27 -16 27 -21 0 -4 7 -8 16 -8 9 0 28 -8 42 -18 78
-53 364 -159 535 -198 253 -58 383 -67 987 -67 474 0 475 0 473 21 -1 11 -14
44 -27 74 -14 29 -84 192 -157 363 -72 171 -140 328 -150 349 -11 22 -19 43
-19 48 0 4 -13 37 -30 71 -16 35 -30 68 -30 72 0 5 -13 36 -29 69 -27 59 -43
95 -45 106 -1 3 -8 21 -17 40 -9 19 -150 346 -312 725 -162 380 -303 708 -313
730 -9 22 -18 42 -19 45 -9 24 -52 126 -71 164 -8 16 -14 33 -14 37 0 5 -13
36 -29 69 -16 33 -27 60 -25 60 3 0 -1 12 -10 28 -19 35 -66 141 -66 148 0 3
-9 24 -19 47 -15 34 -71 163 -156 362 -7 17 -19 46 -28 65 -8 19 -56 132 -107
250 -51 118 -98 229 -105 245 -8 17 -41 95 -75 175 -33 80 -67 159 -74 175 -8
17 -20 46 -29 65 -8 19 -24 56 -36 82 -11 26 -21 50 -21 53 0 2 -13 34 -30 70
-16 36 -30 68 -30 70 0 2 -11 28 -24 57 -13 29 -65 151 -116 271 -79 187 -98
222 -128 245 l-35 27 -396 2 c-350 3 -400 1 -429 -13z m433 -981 c3 -10 7 -20
7 -23 1 -5 42 -102 58 -135 5 -11 34 -81 65 -155 31 -74 63 -148 70 -165 8
-16 36 -84 63 -150 27 -66 107 -255 177 -420 70 -165 138 -325 150 -355 27
-68 102 -245 120 -285 17 -39 37 -89 35 -93 0 -1 6 -15 13 -30 8 -15 19 -38
25 -52 5 -14 17 -41 25 -60 18 -41 40 -93 42 -100 1 -3 9 -23 19 -45 10 -22
27 -62 37 -89 11 -27 28 -68 38 -90 10 -23 114 -266 231 -541 116 -275 219
-516 227 -535 8 -19 19 -44 23 -55 5 -11 19 -45 33 -75 36 -81 42 -104 26 -98
-8 3 -51 17 -97 33 -112 37 -270 118 -385 199 -53 36 -102 72 -109 78 -7 7
-45 40 -83 73 -39 32 -189 177 -335 321 -303 300 -360 352 -522 474 -229 174
-500 312 -750 385 -55 16 -57 17 -46 38 7 12 13 27 14 32 0 6 11 33 23 60 12
28 36 84 53 125 17 41 35 79 39 84 5 6 9 16 9 23 0 7 11 36 24 65 14 29 55
125 91 213 37 88 72 174 80 190 16 36 27 63 112 265 36 85 74 175 84 200 25
55 23 52 98 230 33 80 64 156 70 170 5 14 17 43 27 65 10 22 18 42 19 45 0 3
11 27 23 54 12 27 22 50 22 51 0 1 8 20 17 41 9 22 16 42 15 47 -4 15 16 6 23
-10z"/>
</g>
</svg>
