<svg xmlns="http://www.w3.org/2000/svg" width="58" height="58"><defs><linearGradient x1="0" y1="0" x2="1" y2="0" gradientUnits="userSpaceOnUse" gradientTransform="rotate(-120 259.324 328.825) scale(48.55444)" spreadMethod="pad" id="a"><stop offset="0" stop-color="#2100ff"/><stop offset=".092" stop-color="#3700f2"/><stop offset=".375" stop-color="#7500cd"/><stop offset=".509" stop-color="#8e00bf"/><stop offset="1" stop-color="#ff7015"/></linearGradient></defs><path d="M84.921 725.681c-.441 0-.851-.253-1.04-.694L66.2 683.7h2.458a6.67 6.67 0 016.177 4.097l3.216 7.595.756 1.798c3.75-.915 5.704-3.783 8.194-6.21 3.404-3.34 7.28-7.154 15.065-7.28H109l-17.649 41.287c-.189.41-.6.694-1.04.694zm5.61-28.618c-2.458 2.427-5.137 4.727-9.361 5.862l6.461 15.349 7.028-16.703 2.491-5.863 2.08-4.917c-3.908 1.041-6.178 3.782-8.699 6.272" fill="url(#a)" transform="matrix(1.33333 0 0 -1.33333 -87.8 968.587)"/></svg>